<!--?xml version="1.0" standalone="no"?-->
              <svg id="sw-js-blob-svg" viewBox="0 0 100 100" xmlns="http://www.w3.org/2000/svg" version="1.1">
                    <defs> 
                        <linearGradient id="sw-gradient" x1="0" x2="1" y1="1" y2="0">
                            <stop id="stop1" stop-color="rgba(248, 117, 55, 1)" offset="0%"></stop>
                            <stop id="stop2" stop-color="rgba(251, 168, 31, 1)" offset="100%"></stop>
                        </linearGradient>
                    </defs>
                <path fill="url(#sw-gradient)" d="M23.8,-29.1C29.2,-23.9,30.8,-14.8,31.2,-6.4C31.7,2,30.9,9.7,26.8,14.2C22.7,18.7,15.2,20.1,8.8,20.9C2.5,21.7,-2.9,22.1,-8.9,21.3C-14.9,20.4,-21.6,18.4,-28.5,13.2C-35.3,8,-42.3,-0.3,-40.4,-6.5C-38.6,-12.7,-28,-16.7,-19.8,-21.4C-11.6,-26.1,-5.8,-31.5,1.7,-33.5C9.2,-35.6,18.4,-34.2,23.8,-29.1Z" width="100%" height="100%" transform="translate(50 50)" stroke-width="0" style="transition: all 0.3s ease 0s;"></path>
              </svg>